<?xml version="1.0" standalone="no"?>
<!DOCTYPE svg PUBLIC "-//W3C//DTD SVG 20010904//EN"
 "http://www.w3.org/TR/2001/REC-SVG-20010904/DTD/svg10.dtd">
<svg version="1.0" xmlns="http://www.w3.org/2000/svg"
 width="256.000000pt" height="256.000000pt" viewBox="0 0 256.000000 256.000000"
 preserveAspectRatio="xMidYMid meet">
<metadata>
Created by potrace 1.14, written by Peter Selinger 2001-2017
</metadata>
<g transform="translate(0.000000,256.000000) scale(0.100000,-0.100000)"
fill="#000000" stroke="none">
<path d="M1109 2549 c-192 -28 -386 -103 -545 -209 l-70 -48 -105 -4 c-93 -3
-107 -6 -129 -26 -23 -22 -25 -31 -28 -140 -4 -108 -6 -119 -32 -157 -69 -101
-143 -282 -175 -430 -31 -141 -26 -415 9 -550 2 -5 6 -23 10 -40 4 -16 10 -37
13 -45 3 -8 7 -19 8 -25 6 -24 47 -120 75 -176 174 -344 510 -599 891 -674 94
-19 340 -28 409 -15 25 5 65 11 90 15 24 4 62 13 84 20 27 10 103 14 262 15
229 1 265 6 317 44 42 31 76 108 73 164 -4 47 -33 122 -48 122 -16 0 -7 15 33
60 129 140 235 355 281 570 26 121 32 350 12 465 -29 164 -107 369 -184 480
-28 41 -30 49 -30 145 0 141 -25 180 -115 180 -40 0 -39 -2 -20 70 20 76 19
94 -10 128 -24 29 -104 57 -195 69 -48 6 -84 -24 -105 -87 l-16 -50 -37 16
c-78 34 -219 82 -272 93 -30 6 -68 13 -85 16 -50 10 -306 13 -366 4z"/>
</g>
</svg>
